<?xml version="1.0" encoding="UTF-8"?>
<!DOCTYPE svg PUBLIC "-//W3C//DTD SVG 1.1//EN" "http://www.w3.org/Graphics/SVG/1.1/DTD/svg11.dtd">
<svg xmlns="http://www.w3.org/2000/svg" version="1.1" width="342px" height="341px" style="shape-rendering:geometricPrecision; text-rendering:geometricPrecision; image-rendering:optimizeQuality; fill-rule:evenodd; clip-rule:evenodd" xmlns:xlink="http://www.w3.org/1999/xlink">
<g><path style="opacity:1" fill="#31a7d2" d="M 19.5,15.5 C 20.6594,17.2503 22.326,18.2503 24.5,18.5C 27.3702,19.4333 29.7036,21.1 31.5,23.5C 31.9731,24.9063 32.9731,25.573 34.5,25.5C 36.1667,26.5 37.5,27.8333 38.5,29.5C 42.5,34.1667 46.8333,38.5 51.5,42.5C 52.5,42.8333 53.1667,43.5 53.5,44.5C 54.7573,47.4274 56.7573,49.7607 59.5,51.5C 60.1667,51.5 60.5,51.8333 60.5,52.5C 60.8333,53.5 61.5,54.1667 62.5,54.5C 62.7376,56.4044 63.7376,57.7377 65.5,58.5C 65.8333,59.5 66.5,60.1667 67.5,60.5C 68.0798,62.7488 69.4131,64.4154 71.5,65.5C 72.4194,68.0892 74.086,70.0892 76.5,71.5C 77.0798,73.7488 78.4131,75.4154 80.5,76.5C 80.7376,78.4044 81.7376,79.7377 83.5,80.5C 84.4194,83.0892 86.086,85.0892 88.5,86.5C 88.427,88.0269 89.0937,89.0269 90.5,89.5C 90.7376,91.4044 91.7376,92.7377 93.5,93.5C 94.0798,95.7488 95.4131,97.4154 97.5,98.5C 97.7376,100.404 98.7376,101.738 100.5,102.5C 100.427,104.027 101.094,105.027 102.5,105.5C 103.08,107.749 104.413,109.415 106.5,110.5C 106.738,112.404 107.738,113.738 109.5,114.5C 109.427,116.027 110.094,117.027 111.5,117.5C 111.427,119.027 112.094,120.027 113.5,120.5C 113.738,122.404 114.738,123.738 116.5,124.5C 116.427,126.027 117.094,127.027 118.5,127.5C 118.833,128.5 119.5,129.167 120.5,129.5C 120.427,131.027 121.094,132.027 122.5,132.5C 122.738,134.404 123.738,135.738 125.5,136.5C 125.427,138.027 126.094,139.027 127.5,139.5C 128.401,140.29 129.068,141.29 129.5,142.5C 129.427,144.027 130.094,145.027 131.5,145.5C 131.427,147.027 132.094,148.027 133.5,148.5C 133.833,149.833 134.167,151.167 134.5,152.5C 134.158,153.338 133.492,153.672 132.5,153.5C 130.973,153.427 129.973,154.094 129.5,155.5C 127.777,157.218 125.777,158.551 123.5,159.5C 122.5,159.833 121.833,160.5 121.5,161.5C 121.167,162.5 120.5,163.167 119.5,163.5C 118.094,163.973 117.427,164.973 117.5,166.5C 117.167,167.5 116.5,168.167 115.5,168.5C 114.094,168.973 113.427,169.973 113.5,171.5C 112.094,171.973 111.427,172.973 111.5,174.5C 111.573,176.027 110.906,177.027 109.5,177.5C 107.833,177.5 106.167,177.5 104.5,177.5C 101.855,175.69 98.855,174.69 95.5,174.5C 92.7939,174.312 90.4605,173.312 88.5,171.5C 87.656,169.241 85.9893,168.241 83.5,168.5C 82.4863,167.326 81.153,166.66 79.5,166.5C 79.0269,165.094 78.0269,164.427 76.5,164.5C 74.9731,164.573 73.9731,163.906 73.5,162.5C 73.0269,161.094 72.0269,160.427 70.5,160.5C 70.0269,159.094 69.0269,158.427 67.5,158.5C 66.7377,156.738 65.4044,155.738 63.5,155.5C 62.1667,155.5 61.5,154.833 61.5,153.5C 59.7607,150.757 57.4274,148.757 54.5,147.5C 52.1667,145.833 50.1667,143.833 48.5,141.5C 48.5,139.5 47.5,138.5 45.5,138.5C 45.5,138.167 45.5,137.833 45.5,137.5C 45.1667,136.5 44.5,135.833 43.5,135.5C 41.016,133.2 39.016,130.533 37.5,127.5C 37.4456,125.368 36.4456,124.035 34.5,123.5C 34.7148,121.821 34.0481,120.821 32.5,120.5C 31.6618,120.158 31.3284,119.492 31.5,118.5C 31.573,116.973 30.9063,115.973 29.5,115.5C 29.3404,113.847 28.6737,112.514 27.5,111.5C 25.412,109.664 24.0787,107.331 23.5,104.5C 23.5979,102.447 22.9313,100.78 21.5,99.5C 20.6618,99.1583 20.3284,98.4916 20.5,97.5C 20.5979,95.4471 19.9313,93.7804 18.5,92.5C 18.4484,89.6538 17.4484,87.3204 15.5,85.5C 14.5448,83.2543 13.8782,80.921 13.5,78.5C 13.4835,74.4661 12.4835,70.7994 10.5,67.5C 8.74025,63.4535 7.74025,59.1201 7.5,54.5C 7.63818,49.5859 6.97151,44.9192 5.5,40.5C 5.17547,33.3134 5.50881,26.3134 6.5,19.5C 8.16667,18.5 9.5,17.1667 10.5,15.5C 13.3962,14.2248 16.3962,14.2248 19.5,15.5 Z"/></g>
<g><path style="opacity:0.455" fill="#9bcee2" d="M 19.5,15.5 C 21.674,15.7497 23.3406,16.7497 24.5,18.5C 22.326,18.2503 20.6594,17.2503 19.5,15.5 Z"/></g>
<g><path style="opacity:0.49" fill="#b8dae8" d="M 10.5,15.5 C 9.5,17.1667 8.16667,18.5 6.5,19.5C 6.83333,17.1667 8.16667,15.8333 10.5,15.5 Z"/></g>
<g><path style="opacity:0.098" fill="#c1e7f1" d="M 31.5,23.5 C 33.0269,23.427 34.0269,24.0937 34.5,25.5C 32.9731,25.573 31.9731,24.9063 31.5,23.5 Z"/></g>
<g><path style="opacity:0.043" fill="#b8dfeb" d="M 38.5,29.5 C 43.8333,32.8333 48.1667,37.1667 51.5,42.5C 46.8333,38.5 42.5,34.1667 38.5,29.5 Z"/></g>
<g><path style="opacity:0.404" fill="#b0daea" d="M 5.5,40.5 C 6.97151,44.9192 7.63818,49.5859 7.5,54.5C 6.02849,50.0808 5.36182,45.4141 5.5,40.5 Z"/></g>
<g><path style="opacity:0.839" fill="#a0d2e5" d="M 53.5,44.5 C 56.2427,46.2393 58.2427,48.5726 59.5,51.5C 56.7573,49.7607 54.7573,47.4274 53.5,44.5 Z"/></g>
<g><path style="opacity:0.016" fill="#d7eaf0" d="M 60.5,52.5 C 61.8333,52.5 62.5,53.1667 62.5,54.5C 61.5,54.1667 60.8333,53.5 60.5,52.5 Z"/></g>
<g><path style="opacity:0.761" fill="#a1d3e3" d="M 62.5,54.5 C 64.2624,55.2623 65.2624,56.5956 65.5,58.5C 63.7376,57.7377 62.7376,56.4044 62.5,54.5 Z"/></g>
<g><path style="opacity:0.031" fill="#d1e8f0" d="M 65.5,58.5 C 66.8333,58.5 67.5,59.1667 67.5,60.5C 66.5,60.1667 65.8333,59.5 65.5,58.5 Z"/></g>
<g><path style="opacity:0.773" fill="#a3d2e4" d="M 67.5,60.5 C 69.5869,61.5846 70.9202,63.2512 71.5,65.5C 69.4131,64.4154 68.0798,62.7488 67.5,60.5 Z"/></g>
<g><path style="opacity:0.91" fill="#a0d3e6" d="M 71.5,65.5 C 73.914,66.9108 75.5806,68.9108 76.5,71.5C 74.086,70.0892 72.4194,68.0892 71.5,65.5 Z"/></g>
<g><path style="opacity:0.267" fill="#a3d3e5" d="M 10.5,67.5 C 12.4835,70.7994 13.4835,74.4661 13.5,78.5C 11.7424,75.1456 10.7424,71.479 10.5,67.5 Z"/></g>
<g><path style="opacity:0.737" fill="#a0cfe2" d="M 76.5,71.5 C 78.5869,72.5846 79.9202,74.2512 80.5,76.5C 78.4131,75.4154 77.0798,73.7488 76.5,71.5 Z"/></g>
<g><path style="opacity:0.8" fill="#9ccfe1" d="M 80.5,76.5 C 82.2624,77.2623 83.2624,78.5956 83.5,80.5C 81.7376,79.7377 80.7376,78.4044 80.5,76.5 Z"/></g>
<g><path style="opacity:0.612" fill="#a8d5e5" d="M 83.5,80.5 C 85.914,81.9108 87.5806,83.9108 88.5,86.5C 86.086,85.0892 84.4194,83.0892 83.5,80.5 Z"/></g>
<g><path style="opacity:0.416" fill="#a9d7e8" d="M 15.5,85.5 C 17.4484,87.3204 18.4484,89.6538 18.5,92.5C 16.9348,90.4907 15.9348,88.1573 15.5,85.5 Z"/></g>
<g><path style="opacity:0.569" fill="#a6d4e5" d="M 88.5,86.5 C 89.9063,86.9731 90.573,87.9731 90.5,89.5C 89.0937,89.0269 88.427,88.0269 88.5,86.5 Z"/></g>
<g><path style="opacity:0.898" fill="#91cce0" d="M 90.5,89.5 C 92.2624,90.2623 93.2624,91.5956 93.5,93.5C 91.7376,92.7377 90.7376,91.4044 90.5,89.5 Z"/></g>
<g><path style="opacity:0.282" fill="#a3cfde" d="M 18.5,92.5 C 19.9313,93.7804 20.5979,95.4471 20.5,97.5C 19.0687,96.2196 18.4021,94.5529 18.5,92.5 Z"/></g>
<g><path style="opacity:0.584" fill="#a6d5e7" d="M 93.5,93.5 C 95.5869,94.5846 96.9202,96.2512 97.5,98.5C 95.4131,97.4154 94.0798,95.7488 93.5,93.5 Z"/></g>
<g><path style="opacity:0.878" fill="#6cb9d6" d="M 331.5,97.5 C 327.684,98.4824 323.684,99.1491 319.5,99.5C 322.325,97.8217 325.491,96.8217 329,96.5C 330.07,96.528 330.903,96.8614 331.5,97.5 Z"/></g>
<g><path style="opacity:1" fill="#33a7d2" d="M 331.5,97.5 C 333.027,97.427 334.027,98.0937 334.5,99.5C 334.666,103.514 334.499,107.514 334,111.5C 332.39,113.939 331.556,116.606 331.5,119.5C 331.672,120.492 331.338,121.158 330.5,121.5C 329.326,122.514 328.66,123.847 328.5,125.5C 328.025,127.784 327.025,129.784 325.5,131.5C 324.094,131.973 323.427,132.973 323.5,134.5C 322.094,134.973 321.427,135.973 321.5,137.5C 317.274,145.387 312.274,152.72 306.5,159.5C 304.738,160.262 303.738,161.596 303.5,163.5C 303.167,164.5 302.5,165.167 301.5,165.5C 299.738,166.262 298.738,167.596 298.5,169.5C 297.833,170.833 296.833,171.833 295.5,172.5C 294.167,173.167 293.167,174.167 292.5,175.5C 292.5,175.833 292.5,176.167 292.5,176.5C 290.973,176.427 289.973,177.094 289.5,178.5C 289.5,178.833 289.5,179.167 289.5,179.5C 287.973,179.427 286.973,180.094 286.5,181.5C 285.5,183.167 284.167,184.5 282.5,185.5C 280.596,185.738 279.262,186.738 278.5,188.5C 277.564,189.974 276.23,190.974 274.5,191.5C 272.77,192.026 271.436,193.026 270.5,194.5C 270.027,195.906 269.027,196.573 267.5,196.5C 265.566,197.11 263.899,198.11 262.5,199.5C 257.569,203.463 251.903,206.129 245.5,207.5C 238.51,207.825 231.843,209.159 225.5,211.5C 223.33,212.768 221.163,212.768 219,211.5C 218.828,208.174 218.995,204.841 219.5,201.5C 219.665,198.15 219.498,194.817 219,191.5C 218.768,190.263 218.268,189.263 217.5,188.5C 217.128,184.703 215.794,181.37 213.5,178.5C 211.858,175.898 210.192,173.231 208.5,170.5C 208.957,169.702 209.624,169.369 210.5,169.5C 212.749,168.92 214.415,167.587 215.5,165.5C 216.29,164.599 217.29,163.932 218.5,163.5C 220.749,162.92 222.415,161.587 223.5,159.5C 225.027,159.573 226.027,158.906 226.5,157.5C 228.55,155.453 230.883,153.786 233.5,152.5C 235.558,151.067 237.892,150.4 240.5,150.5C 240.433,149.041 240.766,147.708 241.5,146.5C 243.404,146.262 244.738,145.262 245.5,143.5C 249.65,142.243 252.983,139.909 255.5,136.5C 257.027,136.573 258.027,135.906 258.5,134.5C 264.148,130.007 270.148,126.007 276.5,122.5C 278.027,122.573 279.027,121.906 279.5,120.5C 281.027,120.573 282.027,119.906 282.5,118.5C 290.73,112.305 299.73,107.305 309.5,103.5C 313.165,103.498 316.165,102.165 318.5,99.5C 318.833,99.5 319.167,99.5 319.5,99.5C 323.684,99.1491 327.684,98.4824 331.5,97.5 Z"/></g>
<g><path style="opacity:0.561" fill="#a7d6e6" d="M 97.5,98.5 C 99.2624,99.2623 100.262,100.596 100.5,102.5C 98.7376,101.738 97.7376,100.404 97.5,98.5 Z"/></g>
<g><path style="opacity:0.949" fill="#72bbd6" d="M 318.5,99.5 C 316.165,102.165 313.165,103.498 309.5,103.5C 312.088,101.375 315.088,100.042 318.5,99.5 Z"/></g>
<g><path style="opacity:0.243" fill="#bedfea" d="M 21.5,99.5 C 22.9313,100.78 23.5979,102.447 23.5,104.5C 22.0687,103.22 21.4021,101.553 21.5,99.5 Z"/></g>
<g><path style="opacity:0.808" fill="#9dd0e2" d="M 100.5,102.5 C 101.906,102.973 102.573,103.973 102.5,105.5C 101.094,105.027 100.427,104.027 100.5,102.5 Z"/></g>
<g><path style="opacity:0.329" fill="#b2dae9" d="M 102.5,105.5 C 104.587,106.585 105.92,108.251 106.5,110.5C 104.413,109.415 103.08,107.749 102.5,105.5 Z"/></g>
<g><path style="opacity:0.196" fill="#cae5f0" d="M 27.5,111.5 C 28.6737,112.514 29.3404,113.847 29.5,115.5C 27.8958,114.713 27.2291,113.38 27.5,111.5 Z"/></g>
<g><path style="opacity:0.404" fill="#b9dde9" d="M 106.5,110.5 C 108.262,111.262 109.262,112.596 109.5,114.5C 107.738,113.738 106.738,112.404 106.5,110.5 Z"/></g>
<g><path style="opacity:0.988" fill="#85c3dc" d="M 334.5,99.5 C 335.647,103.646 335.814,107.98 335,112.5C 334.33,115.174 333.163,117.507 331.5,119.5C 331.556,116.606 332.39,113.939 334,111.5C 334.499,107.514 334.666,103.514 334.5,99.5 Z"/></g>
<g><path style="opacity:0.373" fill="#b4dae7" d="M 109.5,114.5 C 110.906,114.973 111.573,115.973 111.5,117.5C 110.094,117.027 109.427,116.027 109.5,114.5 Z"/></g>
<g><path style="opacity:0.278" fill="#bfe4f2" d="M 29.5,115.5 C 30.9063,115.973 31.573,116.973 31.5,118.5C 30.0937,118.027 29.427,117.027 29.5,115.5 Z"/></g>
<g><path style="opacity:0.69" fill="#a3d4e5" d="M 111.5,117.5 C 112.906,117.973 113.573,118.973 113.5,120.5C 112.094,120.027 111.427,119.027 111.5,117.5 Z"/></g>
<g><path style="opacity:0.745" fill="#99cbdc" d="M 282.5,118.5 C 282.027,119.906 281.027,120.573 279.5,120.5C 279.973,119.094 280.973,118.427 282.5,118.5 Z"/></g>
<g><path style="opacity:0.875" fill="#91cbde" d="M 32.5,120.5 C 34.0481,120.821 34.7148,121.821 34.5,123.5C 33.5987,122.71 32.9321,121.71 32.5,120.5 Z"/></g>
<g><path style="opacity:0.635" fill="#94c8da" d="M 279.5,120.5 C 279.027,121.906 278.027,122.573 276.5,122.5C 276.973,121.094 277.973,120.427 279.5,120.5 Z"/></g>
<g><path style="opacity:0.667" fill="#9ad0e3" d="M 113.5,120.5 C 115.262,121.262 116.262,122.596 116.5,124.5C 114.738,123.738 113.738,122.404 113.5,120.5 Z"/></g>
<g><path style="opacity:0.969" fill="#95cce2" d="M 34.5,123.5 C 36.4456,124.035 37.4456,125.368 37.5,127.5C 36.0256,126.564 35.0256,125.23 34.5,123.5 Z"/></g>
<g><path style="opacity:0.169" fill="#cae7f3" d="M 330.5,121.5 C 330.771,123.38 330.104,124.713 328.5,125.5C 328.66,123.847 329.326,122.514 330.5,121.5 Z"/></g>
<g><path style="opacity:0.875" fill="#98cee2" d="M 116.5,124.5 C 117.906,124.973 118.573,125.973 118.5,127.5C 117.094,127.027 116.427,126.027 116.5,124.5 Z"/></g>
<g><path style="opacity:0.012" fill="#d7ebf3" d="M 118.5,127.5 C 119.833,127.5 120.5,128.167 120.5,129.5C 119.5,129.167 118.833,128.5 118.5,127.5 Z"/></g>
<g><path style="opacity:0.345" fill="#bee4ec" d="M 120.5,129.5 C 121.906,129.973 122.573,130.973 122.5,132.5C 121.094,132.027 120.427,131.027 120.5,129.5 Z"/></g>
<g><path style="opacity:0.094" fill="#cee7f0" d="M 325.5,131.5 C 325.573,133.027 324.906,134.027 323.5,134.5C 323.427,132.973 324.094,131.973 325.5,131.5 Z"/></g>
<g><path style="opacity:0.384" fill="#c2e1ee" d="M 122.5,132.5 C 124.262,133.262 125.262,134.596 125.5,136.5C 123.738,135.738 122.738,134.404 122.5,132.5 Z"/></g>
<g><path style="opacity:0.788" fill="#92c8dc" d="M 258.5,134.5 C 258.027,135.906 257.027,136.573 255.5,136.5C 255.973,135.094 256.973,134.427 258.5,134.5 Z"/></g>
<g><path style="opacity:0.02" fill="#cde7ee" d="M 43.5,135.5 C 44.5,135.833 45.1667,136.5 45.5,137.5C 44.1667,137.5 43.5,136.833 43.5,135.5 Z"/></g>
<g><path style="opacity:0.22" fill="#c3e4f0" d="M 323.5,134.5 C 323.573,136.027 322.906,137.027 321.5,137.5C 321.427,135.973 322.094,134.973 323.5,134.5 Z"/></g>
<g><path style="opacity:0.608" fill="#b4dae8" d="M 45.5,138.5 C 47.5,138.5 48.5,139.5 48.5,141.5C 47.1667,140.833 46.1667,139.833 45.5,138.5 Z"/></g>
<g><path style="opacity:0.255" fill="#c9e3ec" d="M 125.5,136.5 C 126.906,136.973 127.573,137.973 127.5,139.5C 126.094,139.027 125.427,138.027 125.5,136.5 Z"/></g>
<g><path style="opacity:0.996" fill="#84c4dc" d="M 255.5,136.5 C 252.983,139.909 249.65,142.243 245.5,143.5C 248.475,140.677 251.808,138.344 255.5,136.5 Z"/></g>
<g><path style="opacity:0.439" fill="#b8deed" d="M 129.5,142.5 C 130.906,142.973 131.573,143.973 131.5,145.5C 130.094,145.027 129.427,144.027 129.5,142.5 Z"/></g>
<g><path style="opacity:0.612" fill="#96cadc" d="M 245.5,143.5 C 244.738,145.262 243.404,146.262 241.5,146.5C 242.262,144.738 243.596,143.738 245.5,143.5 Z"/></g>
<g><path style="opacity:0.831" fill="#a3d4e5" d="M 54.5,147.5 C 57.4274,148.757 59.7607,150.757 61.5,153.5C 58.5726,152.243 56.2393,150.243 54.5,147.5 Z"/></g>
<g><path style="opacity:0.384" fill="#b4dbe9" d="M 131.5,145.5 C 132.906,145.973 133.573,146.973 133.5,148.5C 132.094,148.027 131.427,147.027 131.5,145.5 Z"/></g>
<g><path style="opacity:0.69" fill="#add7e7" d="M 133.5,148.5 C 135.519,149.538 135.853,150.872 134.5,152.5C 134.167,151.167 133.833,149.833 133.5,148.5 Z"/></g>
<g><path style="opacity:1" fill="#69b6d5" d="M 241.5,146.5 C 240.766,147.708 240.433,149.041 240.5,150.5C 237.892,150.4 235.558,151.067 233.5,152.5C 235.8,150.016 238.467,148.016 241.5,146.5 Z"/></g>
<g><path style="opacity:0.964" fill="#76b9d3" d="M 182.5,155.5 C 175.672,153.529 168.672,152.529 161.5,152.5C 156.156,152.76 150.823,153.093 145.5,153.5C 154.871,150.145 164.538,149.645 174.5,152C 177.476,152.705 180.142,153.871 182.5,155.5 Z"/></g>
<g><path style="opacity:1" fill="#31a7d2" d="M 182.5,155.5 C 185.721,155.896 188.388,157.229 190.5,159.5C 191.035,161.446 192.368,162.446 194.5,162.5C 194.833,163.5 195.5,164.167 196.5,164.5C 197.167,164.833 197.833,165.167 198.5,165.5C 198.427,167.027 199.094,168.027 200.5,168.5C 200.833,169.5 201.5,170.167 202.5,170.5C 202.427,172.027 203.094,173.027 204.5,173.5C 204.738,175.404 205.738,176.738 207.5,177.5C 208.338,177.842 208.672,178.508 208.5,179.5C 209.025,183.533 210.358,187.2 212.5,190.5C 213.118,197.817 213.451,205.151 213.5,212.5C 213.784,214.415 213.451,216.081 212.5,217.5C 211.262,219.214 210.595,221.214 210.5,223.5C 210.672,224.492 210.338,225.158 209.5,225.5C 208.326,226.514 207.66,227.847 207.5,229.5C 207.25,231.674 206.25,233.341 204.5,234.5C 202.738,235.262 201.738,236.596 201.5,238.5C 193.574,247.797 183.574,253.464 171.5,255.5C 164.833,255.5 158.167,255.5 151.5,255.5C 147.57,253.192 143.237,251.859 138.5,251.5C 136.847,251.34 135.514,250.674 134.5,249.5C 134.027,248.094 133.027,247.427 131.5,247.5C 130.415,245.413 128.749,244.08 126.5,243.5C 124.856,243.19 123.856,242.19 123.5,240.5C 123.167,239.5 122.5,238.833 121.5,238.5C 119.738,237.738 118.738,236.404 118.5,234.5C 118.167,233.5 117.5,232.833 116.5,232.5C 114.049,229.26 112.382,225.593 111.5,221.5C 111.59,218.848 110.924,216.515 109.5,214.5C 109.5,214.167 109.5,213.833 109.5,213.5C 109.5,207.167 109.5,200.833 109.5,194.5C 109.326,190.189 110.326,186.189 112.5,182.5C 113.906,182.027 114.573,181.027 114.5,179.5C 116.408,178.514 117.408,176.848 117.5,174.5C 119.262,173.738 120.262,172.404 120.5,170.5C 123.5,168.167 126.167,165.5 128.5,162.5C 130.404,162.262 131.738,161.262 132.5,159.5C 133.899,158.11 135.566,157.11 137.5,156.5C 139.38,156.771 140.713,156.104 141.5,154.5C 142.568,153.566 143.901,153.232 145.5,153.5C 150.823,153.093 156.156,152.76 161.5,152.5C 168.672,152.529 175.672,153.529 182.5,155.5 Z"/></g>
<g><path style="opacity:0.047" fill="#c1e5ee" d="M 132.5,153.5 C 132.027,154.906 131.027,155.573 129.5,155.5C 129.973,154.094 130.973,153.427 132.5,153.5 Z"/></g>
<g><path style="opacity:0.686" fill="#abd7e7" d="M 63.5,155.5 C 65.4044,155.738 66.7377,156.738 67.5,158.5C 65.5956,158.262 64.2623,157.262 63.5,155.5 Z"/></g>
<g><path style="opacity:0.463" fill="#a6d2e2" d="M 141.5,154.5 C 140.713,156.104 139.38,156.771 137.5,156.5C 138.514,155.326 139.847,154.66 141.5,154.5 Z"/></g>
<g><path style="opacity:0.671" fill="#9fcde0" d="M 67.5,158.5 C 69.0269,158.427 70.0269,159.094 70.5,160.5C 68.9731,160.573 67.9731,159.906 67.5,158.5 Z"/></g>
<g><path style="opacity:0.678" fill="#98cee2" d="M 226.5,157.5 C 226.027,158.906 225.027,159.573 223.5,159.5C 223.973,158.094 224.973,157.427 226.5,157.5 Z"/></g>
<g><path style="opacity:0.004" fill="#aee0ed" d="M 123.5,159.5 C 123.5,160.833 122.833,161.5 121.5,161.5C 121.833,160.5 122.5,159.833 123.5,159.5 Z"/></g>
<g><path style="opacity:0.741" fill="#9dd0e3" d="M 132.5,159.5 C 131.738,161.262 130.404,162.262 128.5,162.5C 129.262,160.738 130.596,159.738 132.5,159.5 Z"/></g>
<g><path style="opacity:0.553" fill="#a1d4e5" d="M 70.5,160.5 C 72.0269,160.427 73.0269,161.094 73.5,162.5C 71.9731,162.573 70.9731,161.906 70.5,160.5 Z"/></g>
<g><path style="opacity:0.706" fill="#98ccdf" d="M 190.5,159.5 C 192.23,160.026 193.564,161.026 194.5,162.5C 192.368,162.446 191.035,161.446 190.5,159.5 Z"/></g>
<g><path style="opacity:0.055" fill="#bfdfeb" d="M 306.5,159.5 C 306.262,161.404 305.262,162.738 303.5,163.5C 303.738,161.596 304.738,160.262 306.5,159.5 Z"/></g>
<g><path style="opacity:0.008" fill="#bee8f1" d="M 194.5,162.5 C 195.833,162.5 196.5,163.167 196.5,164.5C 195.5,164.167 194.833,163.5 194.5,162.5 Z"/></g>
<g><path style="opacity:0.749" fill="#96c9dc" d="M 223.5,159.5 C 222.415,161.587 220.749,162.92 218.5,163.5C 219.585,161.413 221.251,160.08 223.5,159.5 Z"/></g>
<g><path style="opacity:0.639" fill="#9dccde" d="M 76.5,164.5 C 78.0269,164.427 79.0269,165.094 79.5,166.5C 77.9731,166.573 76.9731,165.906 76.5,164.5 Z"/></g>
<g><path style="opacity:0.059" fill="#c3e9f0" d="M 119.5,163.5 C 119.573,165.027 118.906,166.027 117.5,166.5C 117.427,164.973 118.094,163.973 119.5,163.5 Z"/></g>
<g><path style="opacity:0.612" fill="#a6d4e5" d="M 128.5,162.5 C 126.167,165.5 123.5,168.167 120.5,170.5C 122.167,166.833 124.833,164.167 128.5,162.5 Z"/></g>
<g><path style="opacity:0.467" fill="#a9d2e0" d="M 79.5,166.5 C 81.153,166.66 82.4863,167.326 83.5,168.5C 81.6203,168.771 80.287,168.104 79.5,166.5 Z"/></g>
<g><path style="opacity:0.427" fill="#bedfeb" d="M 198.5,165.5 C 199.906,165.973 200.573,166.973 200.5,168.5C 199.094,168.027 198.427,167.027 198.5,165.5 Z"/></g>
<g><path style="opacity:0.114" fill="#b0ddee" d="M 301.5,165.5 C 301.262,167.404 300.262,168.738 298.5,169.5C 298.738,167.596 299.738,166.262 301.5,165.5 Z"/></g>
<g><path style="opacity:1" fill="#81bfd8" d="M 83.5,168.5 C 85.9893,168.241 87.656,169.241 88.5,171.5C 86.326,171.25 84.6594,170.25 83.5,168.5 Z"/></g>
<g><path style="opacity:0.02" fill="#dbebf1" d="M 200.5,168.5 C 201.833,168.5 202.5,169.167 202.5,170.5C 201.5,170.167 200.833,169.5 200.5,168.5 Z"/></g>
<g><path style="opacity:0.675" fill="#9fcedf" d="M 215.5,165.5 C 214.415,167.587 212.749,168.92 210.5,169.5C 211.585,167.413 213.251,166.08 215.5,165.5 Z"/></g>
<g><path style="opacity:0.02" fill="#d5e9f1" d="M 115.5,168.5 C 115.573,170.027 114.906,171.027 113.5,171.5C 113.427,169.973 114.094,168.973 115.5,168.5 Z"/></g>
<g><path style="opacity:0.792" fill="#91cbe0" d="M 120.5,170.5 C 120.262,172.404 119.262,173.738 117.5,174.5C 117.738,172.596 118.738,171.262 120.5,170.5 Z"/></g>
<g><path style="opacity:0.553" fill="#abd9e9" d="M 202.5,170.5 C 203.906,170.973 204.573,171.973 204.5,173.5C 203.094,173.027 202.427,172.027 202.5,170.5 Z"/></g>
<g><path style="opacity:0.11" fill="#d1edf6" d="M 113.5,171.5 C 113.573,173.027 112.906,174.027 111.5,174.5C 111.427,172.973 112.094,171.973 113.5,171.5 Z"/></g>
<g><path style="opacity:0.878" fill="#89c2d8" d="M 95.5,174.5 C 98.855,174.69 101.855,175.69 104.5,177.5C 101.084,177.472 98.0836,176.472 95.5,174.5 Z"/></g>
<g><path style="opacity:0.031" fill="#c3e8f1" d="M 295.5,172.5 C 295.5,174.5 294.5,175.5 292.5,175.5C 293.167,174.167 294.167,173.167 295.5,172.5 Z"/></g>
<g><path style="opacity:0.502" fill="#b2dae9" d="M 204.5,173.5 C 206.262,174.262 207.262,175.596 207.5,177.5C 205.738,176.738 204.738,175.404 204.5,173.5 Z"/></g>
<g><path style="opacity:0.745" fill="#95cbdf" d="M 104.5,177.5 C 106.167,177.5 107.833,177.5 109.5,177.5C 107.952,179.922 106.286,179.922 104.5,177.5 Z"/></g>
<g><path style="opacity:0.067" fill="#c4e2ec" d="M 292.5,176.5 C 292.027,177.906 291.027,178.573 289.5,178.5C 289.973,177.094 290.973,176.427 292.5,176.5 Z"/></g>
<g><path style="opacity:1" fill="#7fc1dc" d="M 117.5,174.5 C 117.408,176.848 116.408,178.514 114.5,179.5C 114.75,177.326 115.75,175.659 117.5,174.5 Z"/></g>
<g><path style="opacity:0.055" fill="#cae5ee" d="M 289.5,179.5 C 289.027,180.906 288.027,181.573 286.5,181.5C 286.973,180.094 287.973,179.427 289.5,179.5 Z"/></g>
<g><path style="opacity:0.2" fill="#cbe6f0" d="M 114.5,179.5 C 114.573,181.027 113.906,182.027 112.5,182.5C 112.427,180.973 113.094,179.973 114.5,179.5 Z"/></g>
<g><path style="opacity:0.176" fill="#bee0ed" d="M 213.5,178.5 C 215.794,181.37 217.128,184.703 217.5,188.5C 217.5,189.167 217.5,189.833 217.5,190.5C 215.993,186.647 214.66,182.647 213.5,178.5 Z"/></g>
<g><path style="opacity:0.98" fill="#a0d1e4" d="M 208.5,179.5 C 211,182.66 212.333,186.327 212.5,190.5C 210.358,187.2 209.025,183.533 208.5,179.5 Z"/></g>
<g><path style="opacity:0.137" fill="#aedcec" d="M 282.5,185.5 C 281.738,187.262 280.404,188.262 278.5,188.5C 279.262,186.738 280.596,185.738 282.5,185.5 Z"/></g>
<g><path style="opacity:0.051" fill="#abd7e4" d="M 274.5,191.5 C 273.965,193.446 272.632,194.446 270.5,194.5C 271.436,193.026 272.77,192.026 274.5,191.5 Z"/></g>
<g><path style="opacity:0.596" fill="#96d1e7" d="M 217.5,188.5 C 218.268,189.263 218.768,190.263 219,191.5C 219.498,194.817 219.665,198.15 219.5,201.5C 218.475,198.026 217.808,194.36 217.5,190.5C 217.5,189.833 217.5,189.167 217.5,188.5 Z"/></g>
<g><path style="opacity:0.004" fill="#b0ddea" d="M 267.5,196.5 C 266.599,198.727 264.933,199.727 262.5,199.5C 263.899,198.11 265.566,197.11 267.5,196.5 Z"/></g>
<g><path style="opacity:0.652" fill="#9ecddf" d="M 104.5,210.5 C 103.883,210.389 103.383,210.056 103,209.5C 102.502,206.518 102.335,203.518 102.5,200.5C 96.9738,200.821 91.6405,200.488 86.5,199.5C 92.6235,197.908 98.6235,198.241 104.5,200.5C 103.802,203.771 103.802,207.104 104.5,210.5 Z"/></g>
<g><path style="opacity:1" fill="#35a8d2" d="M 86.5,199.5 C 91.6405,200.488 96.9738,200.821 102.5,200.5C 102.335,203.518 102.502,206.518 103,209.5C 103.383,210.056 103.883,210.389 104.5,210.5C 104.704,213.518 105.037,216.518 105.5,219.5C 105.12,221.698 105.787,223.365 107.5,224.5C 107.12,226.698 107.787,228.365 109.5,229.5C 110.338,229.842 110.672,230.508 110.5,231.5C 110.427,233.027 111.094,234.027 112.5,234.5C 113.338,234.842 113.672,235.508 113.5,236.5C 113.738,238.404 114.738,239.738 116.5,240.5C 117.5,240.833 118.167,241.5 118.5,242.5C 119.405,243.964 119.405,245.298 118.5,246.5C 118.5,247.167 118.167,247.5 117.5,247.5C 116.5,247.833 115.833,248.5 115.5,249.5C 115.158,250.338 114.492,250.672 113.5,250.5C 111.847,250.66 110.514,251.326 109.5,252.5C 109.167,252.5 108.833,252.5 108.5,252.5C 104.5,252.5 100.5,252.5 96.5,252.5C 94.901,252.768 93.5676,252.434 92.5,251.5C 90.178,249.336 87.5113,247.669 84.5,246.5C 84.0269,245.094 83.0269,244.427 81.5,244.5C 80.4154,242.413 78.7488,241.08 76.5,240.5C 75.8333,239.167 74.8333,238.167 73.5,237.5C 72.8333,236.167 71.8333,235.167 70.5,234.5C 69.5,234.167 68.8333,233.5 68.5,232.5C 68.573,230.973 67.9063,229.973 66.5,229.5C 66.4456,227.368 65.4456,226.035 63.5,225.5C 62.6618,225.158 62.3284,224.492 62.5,223.5C 62.3404,221.847 61.6737,220.514 60.5,219.5C 59.1667,216.5 59.1667,213.5 60.5,210.5C 61.9063,210.027 62.573,209.027 62.5,207.5C 64.4044,207.262 65.7377,206.262 66.5,204.5C 72.7273,201.399 79.394,199.733 86.5,199.5 Z"/></g>
<g><path style="opacity:0.708" fill="#88cce5" d="M 109.5,194.5 C 109.5,200.833 109.5,207.167 109.5,213.5C 108.799,210.437 108.132,207.27 107.5,204C 108.132,200.73 108.799,197.563 109.5,194.5 Z"/></g>
<g><path style="opacity:0.241" fill="#73b4cc" d="M 212.5,190.5 C 214.017,194.56 214.684,198.893 214.5,203.5C 214.498,206.686 214.165,209.686 213.5,212.5C 213.451,205.151 213.118,197.817 212.5,190.5 Z"/></g>
<g><path style="opacity:0.631" fill="#a4d0e0" d="M 66.5,204.5 C 65.7377,206.262 64.4044,207.262 62.5,207.5C 63.2623,205.738 64.5956,204.738 66.5,204.5 Z"/></g>
<g><path style="opacity:0.416" fill="#b4dae8" d="M 62.5,207.5 C 62.573,209.027 61.9063,210.027 60.5,210.5C 60.427,208.973 61.0937,207.973 62.5,207.5 Z"/></g>
<g><path style="opacity:0.953" fill="#76b7d1" d="M 245.5,207.5 C 239.229,210.221 232.562,211.554 225.5,211.5C 231.843,209.159 238.51,207.825 245.5,207.5 Z"/></g>
<g><path style="opacity:0.38" fill="#a5d1e1" d="M 109.5,214.5 C 110.924,216.515 111.59,218.848 111.5,221.5C 110.076,219.485 109.41,217.152 109.5,214.5 Z"/></g>
<g><path style="opacity:0.118" fill="#b5d9e6" d="M 60.5,219.5 C 61.6737,220.514 62.3404,221.847 62.5,223.5C 60.8958,222.713 60.2291,221.38 60.5,219.5 Z"/></g>
<g><path style="opacity:0.008" fill="#c0e4f0" d="M 212.5,217.5 C 212.741,219.898 212.074,221.898 210.5,223.5C 210.595,221.214 211.262,219.214 212.5,217.5 Z"/></g>
<g><path style="opacity:0.78" fill="#9ed0e2" d="M 105.5,219.5 C 106.931,220.78 107.598,222.447 107.5,224.5C 105.787,223.365 105.12,221.698 105.5,219.5 Z"/></g>
<g><path style="opacity:0.918" fill="#9fd2e6" d="M 63.5,225.5 C 65.4456,226.035 66.4456,227.368 66.5,229.5C 65.0256,228.564 64.0256,227.23 63.5,225.5 Z"/></g>
<g><path style="opacity:0.808" fill="#a7d5e4" d="M 107.5,224.5 C 108.537,225.93 109.204,227.597 109.5,229.5C 107.787,228.365 107.12,226.698 107.5,224.5 Z"/></g>
<g><path style="opacity:0.165" fill="#c4e3ee" d="M 209.5,225.5 C 209.771,227.38 209.104,228.713 207.5,229.5C 207.66,227.847 208.326,226.514 209.5,225.5 Z"/></g>
<g><path style="opacity:0.02" fill="#c9e4ef" d="M 66.5,229.5 C 67.9063,229.973 68.573,230.973 68.5,232.5C 67.0937,232.027 66.427,231.027 66.5,229.5 Z"/></g>
<g><path style="opacity:0.298" fill="#c3e7f3" d="M 110.5,231.5 C 111.906,231.973 112.573,232.973 112.5,234.5C 111.094,234.027 110.427,233.027 110.5,231.5 Z"/></g>
<g><path style="opacity:0.008" fill="#dceff7" d="M 116.5,232.5 C 117.5,232.833 118.167,233.5 118.5,234.5C 117.167,234.5 116.5,233.833 116.5,232.5 Z"/></g>
<g><path style="opacity:0.725" fill="#acd9e8" d="M 213.5,232.5 C 214.833,233.167 215.833,234.167 216.5,235.5C 214.5,235.5 213.5,234.5 213.5,232.5 Z"/></g>
<g><path style="opacity:0.012" fill="#d9ecf0" d="M 70.5,234.5 C 71.8333,235.167 72.8333,236.167 73.5,237.5C 71.5,237.5 70.5,236.5 70.5,234.5 Z"/></g>
<g><path style="opacity:1" fill="#38a8d2" d="M 213.5,232.5 C 213.5,234.5 214.5,235.5 216.5,235.5C 216.833,236.5 217.5,237.167 218.5,237.5C 219.167,237.5 219.5,237.833 219.5,238.5C 219.833,239.5 220.5,240.167 221.5,240.5C 221.427,242.027 222.094,243.027 223.5,243.5C 223.833,244.5 224.5,245.167 225.5,245.5C 227.626,250.381 227.959,255.381 226.5,260.5C 220.317,267.132 212.65,271.132 203.5,272.5C 199.131,272.533 194.798,272.2 190.5,271.5C 188.821,271.715 187.821,271.048 187.5,269.5C 186.5,267.833 185.167,266.5 183.5,265.5C 182.662,265.158 182.328,264.492 182.5,263.5C 182.34,261.801 182.506,260.134 183,258.5C 184.878,257.947 186.378,256.947 187.5,255.5C 189.153,255.34 190.486,254.674 191.5,253.5C 193.404,253.262 194.738,252.262 195.5,250.5C 197.749,249.92 199.415,248.587 200.5,246.5C 200.5,245.833 200.833,245.5 201.5,245.5C 202.5,245.167 203.167,244.5 203.5,243.5C 203.5,242.833 203.833,242.5 204.5,242.5C 205.5,242.167 206.167,241.5 206.5,240.5C 207.906,240.027 208.573,239.027 208.5,237.5C 209.906,237.027 210.573,236.027 210.5,234.5C 210.821,232.952 211.821,232.285 213.5,232.5 Z"/></g>
<g><path style="opacity:0.004" fill="#deeaef" d="M 216.5,235.5 C 217.833,235.5 218.5,236.167 218.5,237.5C 217.5,237.167 216.833,236.5 216.5,235.5 Z"/></g>
<g><path style="opacity:0.09" fill="#cce8f2" d="M 204.5,234.5 C 204.262,236.404 203.262,237.738 201.5,238.5C 201.738,236.596 202.738,235.262 204.5,234.5 Z"/></g>
<g><path style="opacity:0.494" fill="#b5dfed" d="M 210.5,234.5 C 210.573,236.027 209.906,237.027 208.5,237.5C 208.427,235.973 209.094,234.973 210.5,234.5 Z"/></g>
<g><path style="opacity:0.008" fill="#d8ebf0" d="M 73.5,237.5 C 74.8333,238.167 75.8333,239.167 76.5,240.5C 74.5,240.5 73.5,239.5 73.5,237.5 Z"/></g>
<g><path style="opacity:0.514" fill="#b4dceb" d="M 113.5,236.5 C 115.262,237.262 116.262,238.596 116.5,240.5C 114.738,239.738 113.738,238.404 113.5,236.5 Z"/></g>
<g><path style="opacity:0.004" fill="#e0ecf0" d="M 219.5,238.5 C 220.833,238.5 221.5,239.167 221.5,240.5C 220.5,240.167 219.833,239.5 219.5,238.5 Z"/></g>
<g><path style="opacity:0.031" fill="#d1e7ef" d="M 121.5,238.5 C 122.5,238.833 123.167,239.5 123.5,240.5C 122.167,240.5 121.5,239.833 121.5,238.5 Z"/></g>
<g><path style="opacity:0.62" fill="#9ed0e2" d="M 208.5,237.5 C 208.573,239.027 207.906,240.027 206.5,240.5C 206.427,238.973 207.094,237.973 208.5,237.5 Z"/></g>
<g><path style="opacity:0.314" fill="#c6e1ec" d="M 206.5,240.5 C 206.167,241.5 205.5,242.167 204.5,242.5C 204.5,241.167 205.167,240.5 206.5,240.5 Z"/></g>
<g><path style="opacity:0.706" fill="#a7d5e7" d="M 221.5,240.5 C 222.906,240.973 223.573,241.973 223.5,243.5C 222.094,243.027 221.427,242.027 221.5,240.5 Z"/></g>
<g><path style="opacity:0.498" fill="#a8d6e6" d="M 76.5,240.5 C 78.7488,241.08 80.4154,242.413 81.5,244.5C 79.2512,243.92 77.5846,242.587 76.5,240.5 Z"/></g>
<g><path style="opacity:0.02" fill="#dbeef3" d="M 223.5,243.5 C 224.833,243.5 225.5,244.167 225.5,245.5C 224.5,245.167 223.833,244.5 223.5,243.5 Z"/></g>
<g><path style="opacity:0.129" fill="#bedbe3" d="M 118.5,242.5 C 121.022,244.002 121.022,245.335 118.5,246.5C 121.022,245.335 121.022,244.002 118.5,242.5 Z"/></g>
<g><path style="opacity:0.235" fill="#d3ebf1" d="M 203.5,243.5 C 203.167,244.5 202.5,245.167 201.5,245.5C 201.5,244.167 202.167,243.5 203.5,243.5 Z"/></g>
<g><path style="opacity:0.463" fill="#a0cbdd" d="M 81.5,244.5 C 83.0269,244.427 84.0269,245.094 84.5,246.5C 82.9731,246.573 81.9731,245.906 81.5,244.5 Z"/></g>
<g><path style="opacity:0.455" fill="#a8d5e4" d="M 126.5,243.5 C 128.749,244.08 130.415,245.413 131.5,247.5C 129.251,246.92 127.585,245.587 126.5,243.5 Z"/></g>
<g><path style="opacity:0.004" fill="#e6eff3" d="M 117.5,247.5 C 117.5,248.833 116.833,249.5 115.5,249.5C 115.833,248.5 116.5,247.833 117.5,247.5 Z"/></g>
<g><path style="opacity:0.267" fill="#b9dce7" d="M 131.5,247.5 C 133.027,247.427 134.027,248.094 134.5,249.5C 132.973,249.573 131.973,248.906 131.5,247.5 Z"/></g>
<g><path style="opacity:0.063" fill="#a0d0e1" d="M 84.5,246.5 C 87.5113,247.669 90.178,249.336 92.5,251.5C 89.1511,250.831 86.4844,249.164 84.5,246.5 Z"/></g>
<g><path style="opacity:0.698" fill="#aad6e5" d="M 200.5,246.5 C 199.415,248.587 197.749,249.92 195.5,250.5C 196.585,248.413 198.251,247.08 200.5,246.5 Z"/></g>
<g><path style="opacity:0.012" fill="#b5deea" d="M 113.5,250.5 C 112.713,252.104 111.38,252.771 109.5,252.5C 110.514,251.326 111.847,250.66 113.5,250.5 Z"/></g>
<g><path style="opacity:0.51" fill="#a1cddc" d="M 195.5,250.5 C 194.738,252.262 193.404,253.262 191.5,253.5C 192.262,251.738 193.596,250.738 195.5,250.5 Z"/></g>
<g><path style="opacity:0.782" fill="#8ac1d5" d="M 96.5,252.5 C 100.5,252.5 104.5,252.5 108.5,252.5C 104.5,255.167 100.5,255.167 96.5,252.5 Z"/></g>
<g><path style="opacity:1" fill="#6db2ce" d="M 138.5,251.5 C 143.237,251.859 147.57,253.192 151.5,255.5C 146.711,255.346 142.378,254.013 138.5,251.5 Z"/></g>
<g><path style="opacity:0.482" fill="#a4d1de" d="M 191.5,253.5 C 190.486,254.674 189.153,255.34 187.5,255.5C 188.287,253.896 189.62,253.229 191.5,253.5 Z"/></g>
<g><path style="opacity:0.325" fill="#c2e3ee" d="M 225.5,245.5 C 227.755,247.759 228.755,250.592 228.5,254C 228.664,256.544 227.997,258.71 226.5,260.5C 227.959,255.381 227.626,250.381 225.5,245.5 Z"/></g>
<g><path style="opacity:0.727" fill="#8bc2d6" d="M 151.5,255.5 C 158.167,255.5 164.833,255.5 171.5,255.5C 164.826,258.094 158.159,258.094 151.5,255.5 Z"/></g>
<g><path style="opacity:0.753" fill="#93c4d6" d="M 187.5,255.5 C 186.378,256.947 184.878,257.947 183,258.5C 182.506,260.134 182.34,261.801 182.5,263.5C 179.653,258.602 181.32,255.936 187.5,255.5 Z"/></g>
<g><path style="opacity:0.988" fill="#69b8d6" d="M 143.5,262.5 C 138.547,261.671 133.547,261.337 128.5,261.5C 133.662,258.795 138.662,259.128 143.5,262.5 Z"/></g>
<g><path style="opacity:1" fill="#34a8d2" d="M 128.5,261.5 C 133.547,261.337 138.547,261.671 143.5,262.5C 145.404,262.738 146.738,263.738 147.5,265.5C 147.833,266.5 148.5,267.167 149.5,267.5C 149.427,269.027 150.094,270.027 151.5,270.5C 151.5,270.833 151.5,271.167 151.5,271.5C 151.5,275.833 151.5,280.167 151.5,284.5C 151.672,285.492 151.338,286.158 150.5,286.5C 148.5,287.833 146.833,289.5 145.5,291.5C 145.027,292.906 144.027,293.573 142.5,293.5C 137.821,293.666 133.155,293.499 128.5,293C 126.922,291.906 125.255,291.072 123.5,290.5C 121.469,289.461 120.136,287.795 119.5,285.5C 117.916,279.687 118.249,274.02 120.5,268.5C 121.905,264.764 124.571,262.431 128.5,261.5 Z"/></g>
<g><path style="opacity:0.835" fill="#87c7e1" d="M 164.5,264.5 C 161.83,265.248 159.163,266.248 156.5,267.5C 156.577,266.25 157.244,265.417 158.5,265C 160.473,264.505 162.473,264.338 164.5,264.5 Z"/></g>
<g><path style="opacity:0.016" fill="#c6e9f3" d="M 147.5,265.5 C 148.833,265.5 149.5,266.167 149.5,267.5C 148.5,267.167 147.833,266.5 147.5,265.5 Z"/></g>
<g><path style="opacity:1" fill="#44aad2" d="M 164.5,264.5 C 165.167,264.5 165.5,264.833 165.5,265.5C 167.181,268.582 167.848,271.915 167.5,275.5C 167.389,276.117 167.056,276.617 166.5,277C 157.856,278.853 154.522,275.686 156.5,267.5C 159.163,266.248 161.83,265.248 164.5,264.5 Z"/></g>
<g><path style="opacity:0.039" fill="#d4eef5" d="M 183.5,265.5 C 185.167,266.5 186.5,267.833 187.5,269.5C 185.167,269.167 183.833,267.833 183.5,265.5 Z"/></g>
<g><path style="opacity:0.169" fill="#c0e3ee" d="M 149.5,267.5 C 150.906,267.973 151.573,268.973 151.5,270.5C 150.094,270.027 149.427,269.027 149.5,267.5 Z"/></g>
<g><path style="opacity:0.941" fill="#80c3dd" d="M 165.5,265.5 C 168.138,266.242 169.471,268.075 169.5,271C 169.475,272.876 168.809,274.376 167.5,275.5C 167.848,271.915 167.181,268.582 165.5,265.5 Z"/></g>
<g><path style="opacity:0.159" fill="#7eb1c3" d="M 190.5,271.5 C 194.798,272.2 199.131,272.533 203.5,272.5C 201.866,273.161 200.033,273.494 198,273.5C 195.134,273.7 192.634,273.033 190.5,271.5 Z"/></g>
<g><path style="opacity:0.861" fill="#89c8df" d="M 151.5,271.5 C 154.167,275.833 154.167,280.167 151.5,284.5C 151.5,280.167 151.5,275.833 151.5,271.5 Z"/></g>
<g><path style="opacity:1" fill="#3ea9d0" d="M 108.5,278.5 C 111.609,282.021 112.276,286.021 110.5,290.5C 106.582,293.259 102.749,292.925 99,289.5C 98.5045,287.527 98.3379,285.527 98.5,283.5C 99.9063,283.027 100.573,282.027 100.5,280.5C 102.635,278.631 105.302,277.964 108.5,278.5 Z"/></g>
<g><path style="opacity:0.475" fill="#92d1e6" d="M 100.5,280.5 C 100.573,282.027 99.9063,283.027 98.5,283.5C 98.427,281.973 99.0937,280.973 100.5,280.5 Z"/></g>
<g><path style="opacity:0.416" fill="#93d1e7" d="M 120.5,268.5 C 118.249,274.02 117.916,279.687 119.5,285.5C 117.953,283.193 117.287,280.527 117.5,277.5C 117.667,275.5 117.833,273.5 118,271.5C 118.377,270.058 119.21,269.058 120.5,268.5 Z"/></g>
<g><path style="opacity:0.039" fill="#72bad3" d="M 108.5,278.5 C 113.228,280.556 114.561,284.056 112.5,289C 112.164,290.03 111.497,290.53 110.5,290.5C 112.276,286.021 111.609,282.021 108.5,278.5 Z"/></g>
<g><path style="opacity:0.149" fill="#9ed8ea" d="M 150.5,286.5 C 149.833,289.167 148.167,290.833 145.5,291.5C 146.833,289.5 148.5,287.833 150.5,286.5 Z"/></g>
<g><path style="opacity:0.937" fill="#62afcb" d="M 123.5,290.5 C 125.255,291.072 126.922,291.906 128.5,293C 133.155,293.499 137.821,293.666 142.5,293.5C 136.918,296.153 131.251,295.986 125.5,293C 124.619,292.292 123.953,291.458 123.5,290.5 Z"/></g>
<g><path style="opacity:0.125" fill="#69bfdf" d="M 107.5,301.5 C 104.997,302.371 102.33,303.037 99.5,303.5C 101.715,300.66 104.382,299.993 107.5,301.5 Z"/></g>
<g><path style="opacity:1" fill="#3da8d0" d="M 125.5,298.5 C 127.698,298.12 129.365,298.787 130.5,300.5C 130.552,302.903 130.219,305.236 129.5,307.5C 123.28,306.787 121.947,303.787 125.5,298.5 Z"/></g>
<g><path style="opacity:0.914" fill="#9dcde0" d="M 125.5,298.5 C 121.947,303.787 123.28,306.787 129.5,307.5C 124.297,309.145 121.797,307.145 122,301.5C 122.422,299.574 123.589,298.574 125.5,298.5 Z"/></g>
<g><path style="opacity:1" fill="#34a7d1" d="M 107.5,301.5 C 107.833,301.5 108.167,301.5 108.5,301.5C 109.326,303.264 110.659,304.598 112.5,305.5C 112.5,308.5 112.5,311.5 112.5,314.5C 112.5,315.833 111.833,316.5 110.5,316.5C 106.866,317.758 103.2,317.758 99.5,316.5C 98.5,316.167 97.8333,315.5 97.5,314.5C 97.2422,310.628 97.9089,306.961 99.5,303.5C 102.33,303.037 104.997,302.371 107.5,301.5 Z"/></g>
<g><path style="opacity:0.573" fill="#95ccde" d="M 108.5,301.5 C 110.773,301.957 112.106,303.29 112.5,305.5C 110.659,304.598 109.326,303.264 108.5,301.5 Z"/></g>
<g><path style="opacity:0.082" fill="#badeeb" d="M 130.5,300.5 C 131.147,301.274 131.48,302.274 131.5,303.5C 131.66,305.355 130.993,306.688 129.5,307.5C 130.219,305.236 130.552,302.903 130.5,300.5 Z"/></g>
<g><path style="opacity:0.608" fill="#9acfe2" d="M 99.5,303.5 C 97.9089,306.961 97.2422,310.628 97.5,314.5C 95.1232,311.376 95.1232,308.042 97.5,304.5C 97.9569,303.702 98.6236,303.369 99.5,303.5 Z"/></g>
<g><path style="opacity:0.947" fill="#81c3dc" d="M 112.5,305.5 C 113.993,306.312 114.66,307.645 114.5,309.5C 114.564,311.557 113.898,313.223 112.5,314.5C 112.5,311.5 112.5,308.5 112.5,305.5 Z"/></g>
<g><path style="opacity:0.004" fill="#e0edef" d="M 87.5,314.5 C 89.0481,314.821 89.7148,315.821 89.5,317.5C 88.5987,316.71 87.9321,315.71 87.5,314.5 Z"/></g>
<g><path style="opacity:1" fill="#46abd2" d="M 81.5,313.5 C 83.7354,313.205 85.7354,313.539 87.5,314.5C 87.9321,315.71 88.5987,316.71 89.5,317.5C 89.6621,319.527 89.4955,321.527 89,323.5C 88.6174,324.056 88.1174,324.389 87.5,324.5C 84.4299,324.632 81.4299,324.299 78.5,323.5C 77.8574,319.567 78.8574,316.234 81.5,313.5 Z"/></g>
<g><path style="opacity:0.596" fill="#7db9cf" d="M 99.5,316.5 C 103.2,317.758 106.866,317.758 110.5,316.5C 109.306,317.777 107.64,318.444 105.5,318.5C 103.833,318.333 102.167,318.167 100.5,318C 99.944,317.617 99.6107,317.117 99.5,316.5 Z"/></g>
<g><path style="opacity:0.698" fill="#afd7e7" d="M 81.5,313.5 C 78.8574,316.234 77.8574,319.567 78.5,323.5C 76.1444,321.063 75.9777,318.396 78,315.5C 78.8159,314.177 79.9826,313.511 81.5,313.5 Z"/></g>
<g><path style="opacity:0.7" fill="#a4d0e0" d="M 78.5,323.5 C 81.4299,324.299 84.4299,324.632 87.5,324.5C 85.0336,325.634 82.367,325.801 79.5,325C 78.944,324.617 78.6107,324.117 78.5,323.5 Z"/></g>
</svg>
